Exact Audio Copy V0.99 prebeta 4 from 23. January 2008

EAC extraction logfile from 27. January 2010, 20:29

Various / Simon & Shaker - Space Of Sound Festival CD1

Used drive  : Optiarc DVD RW AD-7201A   Adapter: 0  ID: 0

Read mode               : Secure
Utilize accurate stream : Yes
Defeat audio cache      : Yes
Make use of C2 pointers : No

Read offset correction                      : 48
Overread into Lead-In and Lead-Out          : No
Fill up missing offset samples with silence : Yes
Delete leading and trailing silent blocks   : No
Null samples used in CRC calculations       : Yes
Used interface                              : Native Win32 interface for Win NT & 2000
Gap handling                                : Appended to previous track

Used output format              : User Defined Encoder
Selected bitrate                : 128 kBit/s
Quality                         : High
Add ID3 tag                     : No
Command line compressor         : C:Program FilesExact Audio CopyFlacflac.exe
Additional command line options : -8 -V -T "ARTIST=%a" -T "TITLE=%t" -T "ALBUM=%g" -T "DATE=%y" -T "TRACKNUMBER=%n" -T "GENRE=%m" -T "COMMENT=EAC FLAC -8" %s


TOC of the extracted CD

     Track |   Start  |  Length  | Start sector | End sector 
    ---------------------------------------------------------
        1  |  0:00.00 |  5:56.10 |         0    |    26709   
        2  |  5:56.10 |  5:47.68 |     26710    |    52802   
        3  | 11:44.03 |  4:08.16 |     52803    |    71418   
        4  | 15:52.19 |  1:00.71 |     71419    |    75989   
        5  | 16:53.15 |  3:53.17 |     75990    |    93481   
        6  | 20:46.32 |  4:07.18 |     93482    |   112024   
        7  | 24:53.50 |  5:41.09 |    112025    |   137608   
        8  | 30:34.59 |  3:13.40 |    137609    |   152123   
        9  | 33:48.24 |  4:07.54 |    152124    |   170702   
       10  | 37:56.03 |  5:08.52 |    170703    |   193854   
       11  | 43:04.55 |  6:43.41 |    193855    |   224120   
       12  | 49:48.21 |  5:42.43 |    224121    |   249813   


Track  1

     Filename F:TorrentsVA - Simon & Shaker - Space Of Sound FestivalVarious - Simon & Shaker - Space Of Sound Festival CD1 1. Dani Casarano & Feipe Valenzuela - Little House (Original Mix).wav

     Pre-gap length  0:00:02.00

     Peak level 98.8 %
     Track quality 100.0 %
     Test CRC 5ECFD626
     Copy CRC 5ECFD626
     Track not present in AccurateRip database
     Copy OK

Track  2

     Filename F:TorrentsVA - Simon & Shaker - Space Of Sound FestivalVarious - Simon & Shaker - Space Of Sound Festival CD1 2. IO - Pictures Paint (Original Mix).wav

     Peak level 98.8 %
     Track quality 100.0 %
     Test CRC 207B164A
     Copy CRC 207B164A
     Track not present in AccurateRip database
     Copy OK

Track  3

     Filename F:TorrentsVA - Simon & Shaker - Space Of Sound FestivalVarious - Simon & Shaker - Space Of Sound Festival CD1 3. Tonecast - Murder & Fingerprints (Simon & Shaker Remix).wav

     Peak level 98.8 %
     Track quality 100.0 %
     Test CRC 567F4DDF
     Copy CRC 567F4DDF
     Track not present in AccurateRip database
     Copy OK

Track  4

     Filename F:TorrentsVA - Simon & Shaker - Space Of Sound FestivalVarious - Simon & Shaker - Space Of Sound Festival CD1 4. Santorini - Shadittz (Original Mix).wav

     Peak level 98.8 %
     Track quality 100.0 %
     Test CRC A434D6D4
     Copy CRC A434D6D4
     Track not present in AccurateRip database
     Copy OK

Track  5

     Filename F:TorrentsVA - Simon & Shaker - Space Of Sound FestivalVarious - Simon & Shaker - Space Of Sound Festival CD1 5. Alex D'Elia & Nihil Young - Other Side Of The Pillow (Simon & Shaker Remix).wav

     Peak level 98.8 %
     Track quality 100.0 %
     Test CRC 256B38BE
     Copy CRC 256B38BE
     Track not present in AccurateRip database
     Copy OK

Track  6

     Filename F:TorrentsVA - Simon & Shaker - Space Of Sound FestivalVarious - Simon & Shaker - Space Of Sound Festival CD1 6. Simon & Shaker present Teramik - Jalisco (Original Mix).wav

     Peak level 98.8 %
     Track quality 100.0 %
     Test CRC FF999A0B
     Copy CRC FF999A0B
     Track not present in AccurateRip database
     Copy OK

Track  7

     Filename F:TorrentsVA - Simon & Shaker - Space Of Sound FestivalVarious - Simon & Shaker - Space Of Sound Festival CD1 7. Simon & Shaker present Teramik - South Face (Original Mix).wav

     Peak level 98.8 %
     Track quality 100.0 %
     Test CRC 0927012F
     Copy CRC 0927012F
     Track not present in AccurateRip database
     Copy OK

Track  8

     Filename F:TorrentsVA - Simon & Shaker - Space Of Sound FestivalVarious - Simon & Shaker - Space Of Sound Festival CD1 8. Johnny D - Brasil.wav

     Peak level 98.8 %
     Track quality 100.0 %
     Test CRC F7FCB96D
     Copy CRC F7FCB96D
     Track not present in AccurateRip database
     Copy OK

Track  9

     Filename F:TorrentsVA - Simon & Shaker - Space Of Sound FestivalVarious - Simon & Shaker - Space Of Sound Festival CD1 9. Infusion - Legacy (Simon & Shaker Remix).wav

     Peak level 98.8 %
     Track quality 99.9 %
     Test CRC 98A54A81
     Copy CRC 98A54A81
     Track not present in AccurateRip database
     Copy OK

Track 10

     Filename F:TorrentsVA - Simon & Shaker - Space Of Sound FestivalVarious - Simon & Shaker - Space Of Sound Festival CD110. Langenberg - Ideosami.wav

     Peak level 98.8 %
     Track quality 100.0 %
     Test CRC 5FA4F278
     Copy CRC 5FA4F278
     Track not present in AccurateRip database
     Copy OK

Track 11

     Filename F:TorrentsVA - Simon & Shaker - Space Of Sound FestivalVarious - Simon & Shaker - Space Of Sound Festival CD111. Alex Niggermann - Can I Get (Matthias Meyer Remix).wav

     Peak level 98.8 %
     Track quality 100.0 %
     Test CRC 5C62C77A
     Copy CRC 5C62C77A
     Track not present in AccurateRip database
     Copy OK

Track 12

     Filename F:TorrentsVA - Simon & Shaker - Space Of Sound FestivalVarious - Simon & Shaker - Space Of Sound Festival CD112. Re-Up - Inside Us (Original Mix).wav

     Peak level 98.8 %
     Track quality 100.0 %
     Test CRC 3205ECBD
     Copy CRC 3205ECBD
     Track not present in AccurateRip database
     Copy OK


None of the tracks are present in the AccurateRip database

No errors occurred

End of status report
